# xmcd
#
# Track frame offsets: 
#        182
#        19992
#        41457
#        61252
#        81650
#        100025
#        121395
#        141045
#        165257
#        188657
#
# Disc length: 2830 seconds
#
# Revision: 2
# Processed by: cddbd v1.5PL3 Copyright (c) Steve Scherf et al.
# Submitted via: ExactAudioCopy v0.95a3
#
DISCID=7b0b0c0a
DTITLE=Shriley Brown - Fire and Ice
DYEAR=1989
DGENRE=Soul
TTITLE0=What Cha Gonna Do When The money Runs Out
TTITLE1=Ain't Nothin Like The Lovin We Got
TTITLE2=Tell Me Something Good
TTITLE3=Silent Treatment
TTITLE4=King Size Love
TTITLE5=If this Is Goodbye
TTITLE6=Take Me To Your Heart
TTITLE7=Sowed To The Wind
TTITLE8=I Wonder Where The Love Has Gone
TTITLE9=Anticipation
EXTD=
EXTT0=
EXTT1=
EXTT2=
EXTT3=
EXTT4=
EXTT5=
EXTT6=
EXTT7=
EXTT8=
EXTT9=
PLAYORDER=
